<?xml version="1.0" encoding="utf-8"?>
<!-- Generator: Adobe Illustrator 19.2.1, SVG Export Plug-In . SVG Version: 6.00 Build 0)  -->
<svg version="1.1" id="Layer_1" xmlns="http://www.w3.org/2000/svg" xmlns:xlink="http://www.w3.org/1999/xlink" x="0px" y="0px"
	 viewBox="0 0 118 150" style="enable-background:new 0 0 118 150;" xml:space="preserve">
<style type="text/css">
	.st0{fill:#00467F;stroke:#00467F;stroke-width:1.4301;stroke-miterlimit:10;}
	.st1{fill:#00467F;}
</style>
<g>
	<g>
		<g>
			<path class="st0" d="M19.1,145.4c-0.2,0-0.4-0.1-0.6-0.2c-0.4-0.3-0.5-0.8-0.1-1.2c6.3-7.6,9.9-14.5,11.4-21.8
				c1.7-8.3,0.6-17.2-3.6-27.1c-3.4-8.2-7.3-13-11.1-17.7c-4.8-6-9.3-11.6-11.3-22.8c-2.4-13.5,0.6-26.2,8.3-36
				C20.7,8.1,34.1,2,49.7,1.3C59.1,1,68.2,2.3,75.9,5.1c9,3.3,15.9,8.4,20.6,15.4c3.3,4.8,5.5,10.4,6.7,16.7
				c0.9,4.9,1.1,9.9,0.6,14.3l0.1,0.1c0.3,0.3,0.7,0.7,1.1,1.2c0.8,0.9,2.2,2.4,3.7,4.1c3.7,4.4,6.2,8.2,7.4,11
				c0.9,2.2,1,3.9,0.2,5.2c-1.1,1.9-3.8,2-5.9,2.1c-0.9,0.1-2.2,0.1-2.5,0.4c-1.2,1-1.4,3.5-0.8,5c0,0.1,0.2,0.4,0.4,0.6
				c0.6,0.8,1.4,2.2,0.9,3.5c-0.1,0.4-0.4,0.7-0.7,1c0.1,0.2,0.2,0.4,0.3,0.6c0.2,0.8-0.1,1.8-1,2.9c-0.2,0.3-0.4,0.5-0.6,0.7
				c-1.1,1.4-1.2,1.5-1.1,3.9c0,0.9,0.2,2,0.3,3c0.4,3.4,0.7,6.8-0.7,9.7c-2.9,5.5-11.1,4-15.9,3.1c-0.3,0-0.5-0.1-0.7-0.1
				c-0.6-0.1-1.1-0.2-1.7-0.3c-7.6-1.3-13.5-2.4-18.5-4.5c-5.3-2.2-9-5.6-11.9-10.9c-2.5-4.5-4-9.9-4.4-16.3c0-0.5,0.4-0.9,0.8-0.9
				c0.5,0,0.9,0.4,0.9,0.8c0.5,6.1,1.9,11.3,4.2,15.6c2.7,4.9,6.1,8,11.1,10c4.8,2.1,10.6,3.1,18.1,4.4c0.6,0.1,1.1,0.2,1.7,0.3
				c0.3,0,0.5,0.1,0.7,0.1c4.4,0.8,11.8,2.2,14.1-2.2c1.2-2.3,0.9-5.6,0.6-8.7c-0.1-1-0.2-2.2-0.3-3.1c-0.1-3.1,0.2-3.5,1.6-5.2
				c0.2-0.2,0.4-0.4,0.6-0.7c0.8-0.9,0.7-1.3,0.7-1.3s-0.1-0.1-0.5-0.3h-0.1c-0.4-0.2-0.6-0.5-0.6-0.8c0-0.4,0.3-0.7,0.7-0.8
				c0.6-0.2,0.9-0.4,0.9-0.7c0.2-0.5-0.5-1.4-0.7-1.9c-0.2-0.4-0.4-0.7-0.5-0.8c-0.8-2.2-0.6-5.4,1.4-7l0,0c0.7-0.6,2.1-0.7,3.5-0.7
				c1.7-0.1,3.8-0.2,4.6-1.3c0.5-0.7,0.4-1.9-0.4-3.6c-2.6-6.4-11.8-15.7-12.2-16.2l-0.1-0.1c-0.2-0.2-0.2-0.5-0.2-0.7
				c1-7.8-0.2-20.3-6.9-30.3C90.7,14.6,84.1,9.7,75.4,6.5c-7.5-2.7-16.3-4-25.5-3.7C34.7,3.4,21.8,9.3,13.7,19.4
				C6.2,28.8,3.3,41,5.7,53.9c2,10.8,6.2,15.9,11,22c3.7,4.6,7.8,9.8,11.2,18.2c4.2,10.2,5.4,19.4,3.7,28.1
				c-1.6,7.6-5.3,14.8-11.8,22.6C19.6,145.3,19.4,145.4,19.1,145.4z M102.8,52.6c0.2,0,0.4,0,0.6-0.1c-0.1,0-0.1,0.1-0.2,0.1
				S103,52.7,102.8,52.6z M102.5,52.4c0.1,0.1,0.1,0.1,0.2,0.1C102.6,52.5,102.5,52.5,102.5,52.4z"/>
		</g>
	</g>
	<g>
		<g>
			<path class="st1" d="M68.7,32.5c-0.5-0.1-0.9-0.2-1.4-0.3c0-0.2,0-0.5,0-0.7c0.5-0.1,0.9-0.1,1.3-0.2c0.2,0,0.4-0.2,0.4-0.4
				c0-0.5,0-0.8-0.1-1.3c0-0.1-0.1-0.2-0.2-0.3c-0.1-0.1-0.1-0.1-0.2-0.1c-0.5,0-0.9,0-1.4-0.1c0-0.2-0.1-0.5-0.1-0.7
				c0.5-0.1,0.9-0.3,1.3-0.4c0.2-0.1,0.3-0.3,0.3-0.5c-0.1-0.5-0.2-0.8-0.3-1.3c0-0.2-0.2-0.3-0.4-0.3c-0.5,0.1-0.9,0.1-1.4,0.2
				c-0.1-0.2-0.1-0.5-0.2-0.7c0.5-0.2,0.8-0.4,1.3-0.7c0.2-0.1,0.3-0.3,0.2-0.5c-0.2-0.4-0.3-0.8-0.5-1.2c-0.1-0.2-0.3-0.4-0.5-0.3
				c-0.5,0.1-0.9,0.3-1.4,0.4c-0.1-0.2-0.2-0.4-0.3-0.6c0.4-0.3,0.7-0.6,1.1-0.7c0.2-0.1,0.3-0.4,0.1-0.6c-0.2-0.4-0.5-0.7-0.7-1.1
				c-0.1-0.2-0.4-0.2-0.6-0.1c-0.4,0.2-0.8,0.4-1.2,0.6c-0.1-0.2-0.3-0.4-0.4-0.6c0.4-0.4,0.7-0.7,1-1c0.2-0.2,0.1-0.4,0-0.6
				c-0.3-0.4-0.6-0.7-0.8-1c-0.1-0.1-0.4-0.2-0.5-0.1c-0.4,0.3-0.7,0.6-1.2,0.8c-0.2-0.2-0.3-0.3-0.5-0.5c0.3-0.4,0.6-0.7,0.8-1.2
				c0.1-0.1,0.1-0.4-0.1-0.5c-0.4-0.3-0.7-0.6-1-0.8c-0.2-0.1-0.4-0.2-0.6,0c-0.4,0.4-0.7,0.7-1,1c-0.2-0.1-0.4-0.3-0.6-0.4
				c0.2-0.4,0.4-0.8,0.7-1.2c0.1-0.2,0-0.4-0.2-0.6c-0.4-0.2-0.7-0.5-1.1-0.7c-0.2-0.1-0.4,0-0.6,0.2c-0.3,0.4-0.6,0.7-0.8,1.1
				c-0.2-0.1-0.4-0.2-0.6-0.3c0.1-0.5,0.3-0.9,0.4-1.4c0.1-0.2-0.1-0.4-0.3-0.5c-0.4-0.2-0.8-0.3-1.2-0.5c-0.2-0.1-0.4,0-0.5,0.2
				c-0.2,0.5-0.4,0.8-0.7,1.3c-0.2-0.1-0.5-0.1-0.7-0.2c0.1-0.5,0.1-0.9,0.2-1.3c0-0.2-0.1-0.4-0.3-0.5c-0.5-0.1-0.8-0.2-1.3-0.3
				c-0.2,0-0.4,0.1-0.5,0.3c-0.1,0.5-0.3,0.9-0.4,1.3c-0.2,0-0.5-0.1-0.7-0.1c0-0.5,0-0.9-0.1-1.4c0-0.2-0.2-0.4-0.4-0.4
				c-0.5,0-0.8,0-1.3-0.1c-0.2,0-0.4,0.1-0.4,0.3c-0.1,0.5-0.1,0.9-0.2,1.4c-0.2,0-0.5,0-0.7,0c-0.1-0.5-0.2-0.9-0.3-1.4
				c0-0.2-0.2-0.3-0.4-0.3c-0.5,0.1-0.8,0.1-1.3,0.2c-0.2,0-0.4,0.2-0.4,0.4c0,0.5,0,0.9,0.1,1.4c-0.2,0-0.5,0.1-0.7,0.1
				c-0.2-0.5-0.4-0.8-0.5-1.3c-0.1-0.2-0.3-0.4-0.5-0.3c-0.5,0.1-0.8,0.3-1.3,0.4c-0.2,0.1-0.3,0.3-0.3,0.5c0.1,0.5,0.2,0.9,0.3,1.3
				c-0.2,0.1-0.4,0.2-0.7,0.3c-0.3-0.4-0.5-0.8-0.7-1.2c-0.1-0.2-0.4-0.2-0.6-0.1c-0.4,0.2-0.8,0.4-1.2,0.6
				c-0.2,0.1-0.3,0.3-0.2,0.5c0.2,0.5,0.4,0.9,0.6,1.3c-0.2,0.1-0.4,0.2-0.6,0.4c-0.3-0.4-0.7-0.7-0.9-1.1c-0.1-0.1-0.4-0.2-0.5-0.1
				c-0.4,0.3-0.7,0.6-1.1,0.7c-0.2,0.1-0.3,0.4-0.1,0.6c0.3,0.4,0.5,0.8,0.7,1.2c-0.2,0.2-0.4,0.3-0.5,0.5c-0.4-0.3-0.7-0.6-1-0.9
				c-0.2-0.1-0.4-0.2-0.6,0c-0.3,0.3-0.7,0.7-0.9,0.9c-0.2,0.2-0.1,0.4,0,0.6c0.3,0.4,0.6,0.7,0.8,1c-0.2,0.2-0.3,0.4-0.5,0.5
				c-0.4-0.3-0.8-0.5-1.2-0.7c-0.2-0.1-0.4,0-0.6,0.2c-0.3,0.4-0.6,0.7-0.7,1.1c-0.1,0.1-0.1,0.4,0.1,0.5c0.4,0.3,0.7,0.7,1.1,0.9
				c-0.1,0.2-0.2,0.4-0.4,0.6c-0.5-0.2-0.9-0.4-1.3-0.6c-0.2-0.1-0.4,0-0.5,0.2c-0.2,0.4-0.4,0.8-0.6,1.2c-0.1,0.2,0,0.4,0.2,0.6
				c0.4,0.3,0.8,0.5,1.2,0.7c-0.1,0.2-0.2,0.4-0.3,0.7c-0.5-0.1-0.9-0.2-1.4-0.3c-0.2,0-0.4,0.1-0.5,0.3c-0.1,0.5-0.3,0.8-0.4,1.3
				c-0.1,0.2,0.1,0.4,0.3,0.5c0.5,0.2,0.8,0.4,1.3,0.5c-0.1,0.2-0.1,0.5-0.1,0.7c-0.5,0-0.9,0-1.4-0.1c-0.2,0-0.4,0.1-0.4,0.3
				c-0.1,0.5-0.1,0.8-0.2,1.3c0,0.2,0.1,0.4,0.3,0.5c0.5,0.1,0.9,0.2,1.4,0.3c0,0.2,0,0.5,0,0.7c-0.5,0.1-0.9,0.1-1.3,0.2
				c-0.2,0-0.4,0.2-0.4,0.4c0,0.5,0,0.8,0.1,1.3c0,0.2,0.2,0.4,0.4,0.4c0.5,0,0.9,0,1.4,0.1c0,0.2,0.1,0.5,0.1,0.7
				c-0.5,0.1-0.9,0.3-1.3,0.4c-0.2,0.1-0.3,0.3-0.3,0.5c0.1,0.5,0.2,0.8,0.3,1.3c0,0.2,0.2,0.3,0.4,0.3c0.5-0.1,0.9-0.1,1.4-0.2
				c0.1,0.2,0.1,0.5,0.2,0.7c-0.5,0.2-0.8,0.4-1.3,0.7c-0.2,0.1-0.3,0.3-0.2,0.5c0.2,0.4,0.3,0.8,0.5,1.2c0.1,0.2,0.3,0.4,0.5,0.3
				c0.5-0.1,0.9-0.3,1.4-0.4c0.1,0.2,0.2,0.4,0.3,0.6c-0.4,0.3-0.7,0.6-1.1,0.7c-0.2,0.1-0.3,0.4-0.1,0.6c0.2,0.4,0.5,0.7,0.7,1.1
				c0.1,0.2,0.4,0.2,0.6,0.1c0.4-0.2,0.8-0.4,1.2-0.6c0.1,0.2,0.3,0.4,0.4,0.6c-0.4,0.4-0.7,0.7-1,1c-0.2,0.2-0.1,0.4,0,0.6
				c0.3,0.4,0.6,0.7,0.8,1c0.1,0.1,0.4,0.2,0.5,0.1c0.4-0.3,0.7-0.6,1.2-0.8c0.2,0.2,0.3,0.3,0.5,0.5c-0.3,0.4-0.6,0.7-0.8,1.2
				c-0.1,0.1-0.1,0.4,0.1,0.5c0.4,0.3,0.7,0.6,1,0.8c0.2,0.1,0.4,0.2,0.6,0c0.4-0.4,0.7-0.7,1-1c0.2,0.1,0.4,0.3,0.6,0.4
				c-0.2,0.4-0.4,0.8-0.7,1.2c-0.1,0.2,0,0.4,0.2,0.6c0.4,0.2,0.7,0.5,1.1,0.7c0.2,0.1,0.4,0,0.6-0.2c0.3-0.4,0.6-0.7,0.8-1.1
				c0.2,0.1,0.4,0.2,0.6,0.3c-0.1,0.5-0.3,0.9-0.4,1.4c-0.1,0.2,0.1,0.4,0.3,0.5c0.4,0.2,0.8,0.3,1.2,0.5c0.2,0.1,0.4,0,0.5-0.2
				c0.2-0.5,0.4-0.8,0.7-1.3c0.2,0.1,0.5,0.1,0.7,0.2c-0.1,0.5-0.1,0.9-0.2,1.3c0,0.2,0.1,0.4,0.3,0.5c0.5,0.1,0.8,0.2,1.3,0.3
				c0.2,0,0.4-0.1,0.5-0.3c0.1-0.5,0.3-0.9,0.4-1.3c0.2,0,0.5,0.1,0.7,0.1c0,0.5,0,0.9,0.1,1.4c0,0.2,0.2,0.4,0.4,0.4
				c0.5,0,0.8,0,1.3,0.1c0.2,0,0.4-0.1,0.4-0.3c0.1-0.5,0.1-0.9,0.2-1.4c0.2,0,0.5,0,0.7,0c0.1,0.5,0.2,0.9,0.3,1.4
				c0,0.2,0.2,0.3,0.4,0.3c0.5-0.1,0.8-0.1,1.3-0.2c0.2,0,0.4-0.2,0.4-0.4c0-0.5,0-0.9-0.1-1.4c0.2,0,0.5-0.1,0.7-0.1
				c0.2,0.5,0.4,0.8,0.5,1.3c0.1,0.2,0.3,0.4,0.5,0.3c0.5-0.1,0.8-0.3,1.3-0.4c0.2-0.1,0.3-0.3,0.3-0.5c-0.1-0.5-0.2-0.9-0.3-1.3
				c0.2-0.1,0.4-0.2,0.7-0.3c0.3,0.4,0.5,0.8,0.7,1.2c0.1,0.2,0.4,0.2,0.6,0.1c0.4-0.2,0.8-0.4,1.2-0.6c0.2-0.1,0.3-0.3,0.2-0.5
				c-0.2-0.5-0.4-0.9-0.6-1.3c0.2-0.1,0.4-0.2,0.6-0.4c0.3,0.4,0.7,0.7,0.9,1.1c0.1,0.1,0.4,0.2,0.5,0.1c0.4-0.3,0.7-0.6,1.1-0.7
				c0.2-0.1,0.3-0.4,0.1-0.6c-0.3-0.4-0.5-0.8-0.7-1.2c0.2-0.2,0.4-0.3,0.5-0.5c0.4,0.3,0.7,0.6,1,0.9c0.2,0.1,0.4,0.2,0.6,0
				c0.3-0.3,0.7-0.7,0.9-0.9c0.2-0.2,0.1-0.4,0-0.6c-0.3-0.4-0.6-0.7-0.8-1c0.2-0.2,0.3-0.4,0.5-0.5c0.4,0.3,0.8,0.5,1.2,0.7
				c0.2,0.1,0.4,0,0.6-0.2c0.3-0.4,0.6-0.7,0.7-1.1c0.1-0.1,0.1-0.4-0.1-0.5c-0.4-0.3-0.7-0.7-1.1-0.9c0.1-0.2,0.2-0.4,0.4-0.6
				c0.5,0.2,0.9,0.4,1.3,0.6c0.2,0.1,0.4,0,0.5-0.2c0.2-0.4,0.4-0.8,0.6-1.2c0.1-0.2,0-0.4-0.2-0.6c-0.4-0.3-0.8-0.5-1.2-0.7
				c0.1-0.2,0.2-0.4,0.3-0.7c0.5,0.1,0.9,0.2,1.4,0.3c0.2,0,0.4-0.1,0.5-0.3c0.1-0.5,0.3-0.8,0.4-1.3c0.1-0.2-0.1-0.4-0.3-0.5
				c-0.5-0.2-0.8-0.4-1.3-0.5c0.1-0.2,0.1-0.5,0.1-0.7c0.5,0,0.9,0,1.4,0.1c0.2,0,0.4-0.1,0.4-0.3c0.1-0.5,0.1-0.8,0.2-1.3
				C69,32.7,69,32.5,68.7,32.5z M38.3,32.2c-0.7,0-1.1-0.5-1.1-1.1c0-0.4,0.2-0.7,0.4-0.8c0.1-0.1,0.4-0.4,0.8-0.4
				c0.4,0,0.7,0.2,0.8,0.4c0.1,0.1,0.4,0.4,0.4,0.8c0,0.4-0.2,0.7-0.4,0.8C39.1,32,38.8,32.2,38.3,32.2z M45.1,40.1
				c-1.4,1.4-3.6,1.4-5,0c-1.4-1.4-1.4-3.6,0-5c1.4-1.4,3.6-1.4,5,0C46.4,36.5,46.4,38.7,45.1,40.1z M45.1,26.9
				c-1.4,1.4-3.6,1.4-5,0c-1.4-1.4-1.4-3.6,0-5c1.4-1.4,3.6-1.4,5,0C46.4,23.3,46.4,25.5,45.1,26.9z M48.3,19.3
				c0.1-0.1,0.4-0.4,0.8-0.4c0.4,0,0.7,0.2,0.8,0.4c0.2,0.2,0.4,0.4,0.4,0.8c0,0.7-0.5,1.1-1.1,1.1c-0.4,0-0.7-0.2-0.8-0.4
				c-0.1-0.1-0.4-0.4-0.4-0.8C48.1,19.8,48.2,19.5,48.3,19.3z M49.2,43.1c-0.4,0-0.7-0.2-0.8-0.4c-0.1-0.1-0.4-0.4-0.4-0.8
				c0-0.4,0.2-0.7,0.4-0.8c0.1-0.1,0.4-0.4,0.8-0.4c0.4,0,0.7,0.2,0.8,0.4c0.1,0.1,0.4,0.4,0.4,0.8C50.3,42.5,49.8,43.1,49.2,43.1z
				 M51.1,32.8c-1,1-2.7,1-3.7,0c-1-1-1-2.7,0-3.7s2.7-1,3.7,0C52.1,30.2,52.1,31.8,51.1,32.8z M53.3,22c1.4-1.4,3.6-1.4,5,0
				c1.4,1.4,1.4,3.6,0,5c-1.4,1.4-3.6,1.4-5,0C51.9,25.5,51.9,23.3,53.3,22z M58.3,40.1c-1.4,1.4-3.6,1.4-5,0c-1.4-1.4-1.4-3.6,0-5
				c1.4-1.4,3.6-1.4,5,0C59.6,36.5,59.6,38.7,58.3,40.1z M60.8,31.8c-0.2,0.2-0.4,0.4-0.8,0.4c-0.7,0-1.1-0.5-1.1-1.1
				c0-0.4,0.2-0.7,0.4-0.8c0.1-0.1,0.4-0.4,0.8-0.4c0.4,0,0.7,0.2,0.8,0.4c0.1,0.1,0.4,0.4,0.4,0.8C61.2,31.4,61,31.7,60.8,31.8z"/>
		</g>
		<g>
			<path class="st1" d="M91.2,54c-0.4-0.1-0.7-0.2-1.1-0.3c0-0.2,0-0.4,0-0.6c0.4-0.1,0.7-0.1,1.1-0.2c0.2,0,0.3-0.1,0.3-0.3
				c0-0.4,0-0.7,0-1c0-0.1-0.1-0.2-0.1-0.2s-0.1-0.1-0.2-0.1c-0.4,0-0.7,0-1.1-0.1c0-0.2,0-0.4-0.1-0.6c0.4-0.1,0.7-0.2,1.1-0.4
				c0.2,0,0.2-0.2,0.2-0.4c-0.1-0.3-0.2-0.7-0.2-0.9c0-0.1-0.2-0.2-0.3-0.2c-0.4,0.1-0.7,0.1-1.2,0.2c-0.1-0.2-0.1-0.4-0.2-0.5
				c0.4-0.2,0.7-0.4,1-0.6c0.1-0.1,0.2-0.2,0.1-0.3c-0.1-0.3-0.3-0.7-0.4-0.9c-0.1-0.1-0.2-0.3-0.4-0.2c-0.4,0.1-0.7,0.2-1.1,0.4
				c-0.1-0.2-0.2-0.3-0.3-0.5c0.3-0.2,0.6-0.5,0.9-0.7c0.1-0.1,0.2-0.3,0.1-0.4c-0.2-0.3-0.4-0.6-0.6-0.8c-0.1-0.1-0.3-0.2-0.4-0.1
				c-0.4,0.2-0.7,0.4-1,0.6c-0.1-0.1-0.2-0.3-0.3-0.4c0.3-0.3,0.6-0.6,0.7-0.8c0.1-0.1,0.1-0.3,0-0.4c-0.2-0.3-0.5-0.5-0.7-0.7
				c-0.1-0.1-0.3-0.1-0.4,0c-0.3,0.3-0.7,0.5-0.9,0.7c-0.1-0.1-0.3-0.3-0.4-0.4c0.2-0.3,0.5-0.7,0.7-0.9c0.1-0.1,0.1-0.3,0-0.4
				c-0.3-0.2-0.6-0.4-0.7-0.7c-0.1-0.1-0.3-0.1-0.4,0c-0.3,0.3-0.6,0.6-0.7,0.8c-0.2-0.1-0.3-0.2-0.5-0.3c0.2-0.4,0.3-0.7,0.5-1
				c0.1-0.1,0-0.3-0.1-0.4c-0.3-0.2-0.6-0.3-0.8-0.5c-0.1-0.1-0.3,0-0.4,0.1c-0.2,0.3-0.4,0.7-0.7,0.9c-0.2-0.1-0.3-0.1-0.5-0.2
				c0.1-0.4,0.2-0.7,0.3-1.1c0-0.2-0.1-0.3-0.2-0.4c-0.3-0.1-0.7-0.2-0.9-0.3c-0.1,0-0.3,0-0.3,0.1c-0.2,0.4-0.3,0.7-0.5,1.1
				c-0.2,0-0.4-0.1-0.5-0.1c0-0.4,0-0.7,0.1-1.1c0-0.1-0.1-0.3-0.2-0.3c-0.4,0-0.7-0.1-1-0.1c-0.2,0-0.3,0-0.4,0.2
				c-0.1,0.4-0.2,0.7-0.3,1.1c-0.2,0-0.4,0-0.6,0c-0.1-0.4-0.1-0.7-0.2-1.1c0-0.2-0.1-0.3-0.3-0.3c-0.4,0-0.7,0-1,0
				c-0.2,0-0.3,0.1-0.3,0.3c0,0.4,0,0.7-0.1,1.1c-0.2,0-0.4,0-0.6,0.1c-0.1-0.4-0.2-0.7-0.4-1.1c0-0.2-0.2-0.2-0.4-0.2
				c-0.3,0.1-0.7,0.2-0.9,0.2c-0.1,0-0.2,0.2-0.2,0.3c0.1,0.4,0.1,0.7,0.2,1.2c-0.2,0.1-0.4,0.1-0.5,0.2c-0.2-0.4-0.4-0.7-0.6-1
				c-0.1-0.1-0.2-0.2-0.3-0.1c-0.3,0.1-0.7,0.3-0.9,0.4c-0.1,0.1-0.3,0.2-0.2,0.4c0.1,0.4,0.2,0.7,0.4,1.1c-0.2,0.1-0.3,0.2-0.5,0.3
				c-0.2-0.3-0.5-0.6-0.7-0.9c-0.1-0.1-0.3-0.2-0.4-0.1c-0.3,0.2-0.6,0.4-0.8,0.6c-0.1,0.1-0.2,0.3-0.1,0.4c0.2,0.4,0.4,0.7,0.6,1
				c-0.1,0.1-0.3,0.2-0.4,0.3c-0.3-0.3-0.6-0.6-0.8-0.7c-0.1-0.1-0.3-0.1-0.4,0c-0.3,0.2-0.5,0.5-0.7,0.7c-0.1,0.1-0.1,0.3,0,0.4
				c0.3,0.3,0.5,0.7,0.7,0.9c-0.1,0.1-0.3,0.3-0.4,0.4c-0.3-0.2-0.7-0.4-0.9-0.7c-0.1-0.1-0.3-0.1-0.4,0c-0.2,0.3-0.4,0.6-0.7,0.7
				c-0.1,0.1-0.1,0.3,0,0.4c0.3,0.3,0.6,0.6,0.8,0.7c-0.1,0.2-0.2,0.3-0.3,0.5c-0.4-0.2-0.7-0.3-1-0.5c-0.1-0.1-0.3,0-0.4,0.1
				c-0.2,0.3-0.3,0.6-0.5,0.8c-0.1,0.1,0,0.3,0.1,0.4c0.3,0.2,0.7,0.4,0.9,0.7c-0.1,0.2-0.1,0.3-0.2,0.5c-0.4-0.1-0.7-0.2-1.1-0.3
				c-0.2,0-0.3,0.1-0.4,0.2c-0.1,0.3-0.2,0.7-0.3,0.9c0,0.1,0,0.3,0.1,0.3c0.4,0.2,0.7,0.3,1.1,0.5c0,0.2-0.1,0.4-0.1,0.5
				c-0.4,0-0.7,0-1.1-0.1c-0.1,0-0.3,0.1-0.3,0.2c0,0.4-0.1,0.7-0.1,1c0,0.2,0,0.3,0.2,0.4c0.4,0.1,0.7,0.2,1.1,0.3
				c0,0.2,0,0.4,0,0.6c-0.4,0.1-0.7,0.1-1.1,0.2c-0.2,0-0.3,0.1-0.3,0.3c0,0.4,0,0.7,0,1c0,0.2,0.1,0.3,0.3,0.3c0.4,0,0.7,0,1.1,0.1
				c0,0.2,0,0.4,0.1,0.6c-0.4,0.1-0.7,0.2-1.1,0.4c-0.2,0-0.2,0.2-0.2,0.4c0.1,0.3,0.2,0.7,0.2,0.9c0,0.1,0.2,0.2,0.3,0.2
				c0.4-0.1,0.7-0.1,1.2-0.2c0.1,0.2,0.1,0.4,0.2,0.5c-0.4,0.2-0.7,0.4-1,0.6c-0.1,0.1-0.2,0.2-0.1,0.3c0.1,0.3,0.3,0.7,0.4,0.9
				c0.1,0.1,0.2,0.3,0.4,0.2c0.4-0.1,0.7-0.2,1.1-0.4c0.1,0.2,0.2,0.3,0.3,0.5c-0.3,0.2-0.6,0.5-0.9,0.7c-0.1,0.1-0.2,0.3-0.1,0.4
				c0.2,0.3,0.4,0.6,0.6,0.8c0.1,0.1,0.3,0.2,0.4,0.1c0.4-0.2,0.7-0.4,1-0.6c0.1,0.1,0.2,0.3,0.3,0.4c-0.3,0.3-0.6,0.6-0.7,0.8
				c-0.1,0.1-0.1,0.3,0,0.4c0.2,0.3,0.5,0.5,0.7,0.7c0.1,0.1,0.3,0.1,0.4,0c0.3-0.3,0.7-0.5,0.9-0.7c0.1,0.1,0.3,0.3,0.4,0.4
				c-0.2,0.3-0.5,0.7-0.7,0.9c-0.1,0.1-0.1,0.3,0,0.4c0.3,0.2,0.6,0.4,0.7,0.7c0.1,0.1,0.3,0.1,0.4,0c0.3-0.3,0.6-0.6,0.7-0.8
				c0.2,0.1,0.3,0.2,0.5,0.3c-0.2,0.4-0.3,0.7-0.5,1c-0.1,0.1,0,0.3,0.1,0.4c0.3,0.2,0.6,0.3,0.8,0.5c0.1,0.1,0.3,0,0.4-0.1
				c0.2-0.3,0.4-0.7,0.7-0.9c0.2,0.1,0.3,0.1,0.5,0.2c-0.1,0.4-0.2,0.7-0.3,1.1c0,0.2,0.1,0.3,0.2,0.4c0.3,0.1,0.7,0.2,0.9,0.3
				c0.1,0,0.3,0,0.3-0.1c0.2-0.4,0.3-0.7,0.5-1.1c0.2,0,0.4,0.1,0.5,0.1c0,0.4,0,0.7-0.1,1.1c0,0.1,0.1,0.3,0.2,0.3
				c0.4,0,0.7,0.1,1,0.1c0.2,0,0.3,0,0.4-0.2c0.1-0.4,0.2-0.7,0.3-1.1c0.2,0,0.4,0,0.6,0c0.1,0.4,0.1,0.7,0.2,1.1
				c0,0.2,0.1,0.3,0.3,0.3c0.4,0,0.7,0,1,0c0.2,0,0.3-0.1,0.3-0.3c0-0.4,0-0.7,0.1-1.1c0.2,0,0.4,0,0.6-0.1c0.1,0.4,0.2,0.7,0.4,1.1
				c0,0.2,0.2,0.2,0.4,0.2c0.3-0.1,0.7-0.2,0.9-0.2c0.1,0,0.2-0.2,0.2-0.3c-0.1-0.4-0.1-0.7-0.2-1.2c0.2-0.1,0.4-0.1,0.5-0.2
				c0.2,0.4,0.4,0.7,0.6,1c0.1,0.1,0.2,0.2,0.3,0.1c0.3-0.1,0.7-0.3,0.9-0.4c0.1-0.1,0.3-0.2,0.2-0.4c-0.1-0.4-0.2-0.7-0.4-1.1
				c0.2-0.1,0.3-0.2,0.5-0.3c0.2,0.3,0.5,0.6,0.7,0.9c0.1,0.1,0.3,0.2,0.4,0.1c0.3-0.2,0.6-0.4,0.8-0.6c0.1-0.1,0.2-0.3,0.1-0.4
				c-0.2-0.4-0.4-0.7-0.6-1c0.1-0.1,0.3-0.2,0.4-0.3c0.3,0.3,0.6,0.6,0.8,0.7c0.1,0.1,0.3,0.1,0.4,0c0.3-0.2,0.5-0.5,0.7-0.7
				c0.1-0.1,0.1-0.3,0-0.4c-0.3-0.3-0.5-0.7-0.7-0.9c0.1-0.1,0.3-0.3,0.4-0.4c0.3,0.2,0.7,0.4,0.9,0.7c0.1,0.1,0.3,0.1,0.4,0
				c0.2-0.3,0.4-0.6,0.7-0.7c0.1-0.1,0.1-0.3,0-0.4c-0.3-0.3-0.6-0.6-0.8-0.7c0.1-0.2,0.2-0.3,0.3-0.5c0.4,0.2,0.7,0.3,1,0.5
				c0.1,0.1,0.3,0,0.4-0.1c0.2-0.3,0.3-0.6,0.5-0.8c0.1-0.1,0-0.3-0.1-0.4c-0.3-0.2-0.7-0.4-0.9-0.7c0.1-0.2,0.1-0.3,0.2-0.5
				c0.4,0.1,0.7,0.2,1.1,0.3c0.2,0,0.3-0.1,0.4-0.2c0.1-0.3,0.2-0.7,0.3-0.9c0-0.1,0-0.3-0.1-0.3c-0.4-0.2-0.7-0.3-1.1-0.5
				c0-0.2,0.1-0.4,0.1-0.5c0.4,0,0.7,0,1.1,0.1c0.1,0,0.3-0.1,0.3-0.2c0-0.4,0.1-0.7,0.1-1C91.5,54.2,91.4,54,91.2,54z M87.1,52.9
				c0,1.5-0.3,2.9-0.9,4.1l-4.6-2.6c0.2-0.5,0.3-1,0.3-1.5c0-0.6-0.1-1-0.3-1.5l4.6-2.6C86.8,50,87.1,51.4,87.1,52.9z M77.1,55.1
				c-1.2,0-2.2-1-2.2-2.2c0-1.2,1-2.2,2.2-2.2s2.2,1,2.2,2.2C79.4,54,78.3,55.1,77.1,55.1z M67.1,52.9c0-1.5,0.3-2.9,0.9-4.1
				l4.6,2.6c-0.2,0.5-0.3,1-0.3,1.5c0,0.6,0.1,1,0.3,1.5L68,57C67.4,55.8,67.1,54.4,67.1,52.9z M85.3,47.1l-4.6,2.6
				c-0.7-0.7-1.6-1.3-2.6-1.5V43C81.1,43.1,83.6,44.7,85.3,47.1z M76.2,42.9v5.2c-1,0.2-2,0.7-2.6,1.5L69,47
				C70.6,44.7,73.2,43.1,76.2,42.9z M69,58.7l4.6-2.6c0.7,0.7,1.6,1.3,2.6,1.5v5.2C73.2,62.6,70.6,61,69,58.7z M78.1,62.8v-5.2
				c1-0.2,2-0.7,2.6-1.5l4.6,2.6C83.6,61,81.1,62.6,78.1,62.8z"/>
		</g>
		<g>
			<g>
				<path class="st1" d="M46.7,59.3c0.2-0.1,0.3-0.3,0.2-0.5l-0.5-1.5C46.4,57.1,46.2,57,46,57l-1.2,0.2c-0.2,0-0.5-0.1-0.6-0.3
					l-0.7-1.2c-0.1-0.2-0.1-0.5,0.1-0.6l0.7-0.9c0.1-0.2,0.1-0.4,0-0.6l-1-1.1c-0.1-0.2-0.4-0.2-0.6-0.1l-1,0.7
					c-0.2,0.1-0.5,0.1-0.6,0l-1.1-0.8c-0.2-0.1-0.3-0.4-0.2-0.6l0.3-1.2c0-0.2-0.1-0.4-0.3-0.5l-1.4-0.6c-0.2-0.1-0.4,0-0.6,0.2
					l-0.7,1c-0.1,0.2-0.4,0.3-0.6,0.3l-1.4-0.2c-0.2,0-0.4-0.2-0.5-0.4l-0.3-1.2c0-0.2-0.3-0.4-0.5-0.3L32.6,49
					c-0.2,0-0.4,0.2-0.4,0.4l-0.1,1.2c0,0.2-0.2,0.4-0.4,0.5l-1.3,0.4c-0.2,0.1-0.5,0-0.6-0.2l-0.7-0.9c-0.1-0.2-0.4-0.2-0.6-0.1
					l-1.3,0.7c-0.2,0.1-0.3,0.3-0.2,0.5l0.4,1.1c0.1,0.2,0,0.5-0.1,0.6l-1,0.9c-0.2,0.1-0.4,0.2-0.6,0.1l-1.1-0.6
					c-0.2-0.1-0.4,0-0.6,0.1l-0.8,1.2c-0.1,0.2-0.1,0.4,0.1,0.6l0.8,0.8c0.2,0.1,0.2,0.4,0.1,0.6l-0.6,1.3c-0.1,0.2-0.3,0.4-0.5,0.4
					H22c-0.2,0-0.4,0.2-0.4,0.4l-0.3,1.5c0,0.2,0.1,0.4,0.3,0.5l1.1,0.4c0.2,0.1,0.4,0.3,0.4,0.5l0.1,1.4c0,0.2-0.1,0.5-0.3,0.5
					l-1.1,0.5c-0.2,0.1-0.3,0.3-0.2,0.5l0.5,1.5c0.1,0.2,0.3,0.3,0.5,0.3l1.2-0.2c0.2,0,0.5,0.1,0.6,0.3l0.7,1.2
					c0.1,0.2,0.1,0.5-0.1,0.6l-0.7,0.9c-0.1,0.2-0.1,0.4,0,0.6l1,1.1c0.1,0.2,0.4,0.2,0.6,0.1l1-0.7c0.2-0.1,0.5-0.1,0.6,0l1.1,0.8
					c0.2,0.1,0.3,0.4,0.2,0.6l-0.3,1.2c0,0.2,0.1,0.4,0.3,0.5l1.4,0.6c0.2,0.1,0.4,0,0.6-0.2l0.7-1c0.1-0.2,0.4-0.3,0.6-0.3l1.4,0.2
					c0.2,0,0.4,0.2,0.5,0.4l0.3,1.2c0,0.2,0.3,0.4,0.5,0.3l1.5-0.1c0.2,0,0.4-0.2,0.4-0.4l0.1-1.2c0-0.2,0.2-0.4,0.4-0.5l1.3-0.4
					c0.2-0.1,0.5,0,0.6,0.2l0.7,0.9c0.1,0.2,0.4,0.2,0.6,0.1l1.3-0.7c0.2-0.1,0.3-0.3,0.2-0.5l-0.4-1.1c-0.1-0.2,0-0.5,0.1-0.6
					l1-0.9c0.2-0.1,0.4-0.2,0.6-0.1l1.1,0.6c0.2,0.1,0.4,0,0.6-0.1l0.8-1.2c0.1-0.2,0.1-0.4-0.1-0.6l-0.8-0.8
					c-0.2-0.1-0.2-0.4-0.1-0.6l0.6-1.3c0.1-0.2,0.3-0.4,0.5-0.4h1.2c0.2,0,0.4-0.2,0.4-0.4l0.3-1.5c0-0.2-0.1-0.4-0.3-0.5l-1.1-0.4
					c-0.2-0.1-0.4-0.3-0.4-0.5l-0.1-1.4c0-0.2,0.1-0.5,0.3-0.5L46.7,59.3z M32.5,68.4c-3.7-1-5.8-4.9-4.8-8.5c1-3.7,4.9-5.8,8.5-4.8
					c3.7,1,5.8,4.9,4.8,8.5C40,67.2,36.2,69.4,32.5,68.4z"/>
			</g>
			<g>
				<path class="st1" d="M35.9,56.6c-2.8-0.7-5.7,0.8-6.6,3.7c-0.7,2.8,0.8,5.7,3.7,6.6c2.8,0.7,5.7-0.8,6.6-3.7
					C40.3,60.3,38.7,57.4,35.9,56.6z M36.2,62.2c-0.3,1-1.3,1.6-2.3,1.3s-1.6-1.3-1.3-2.3c0.3-1,1.3-1.6,2.3-1.3
					C35.9,60.1,36.5,61.1,36.2,62.2z"/>
			</g>
		</g>
		<g>
			<g>
				
					<ellipse transform="matrix(0.2709 -0.9626 0.9626 0.2709 -18.1298 96.8257)" class="st1" cx="54.9" cy="60.4" rx="1.8" ry="1.8"/>
			</g>
			<g>
				<path class="st1" d="M60.3,57.9c-0.1-0.2,0-0.5,0.1-0.7l1-1.4c0.1-0.2,0.1-0.4,0-0.6L61,54.7c-0.1-0.2-0.4-0.2-0.6-0.1l-1.5,0.7
					c-0.2,0.1-0.5,0.1-0.7,0l-0.5-0.3c-0.2-0.1-0.3-0.4-0.3-0.6v-1.7c0-0.2-0.2-0.4-0.4-0.5l-0.7-0.2c-0.2-0.1-0.4,0.1-0.5,0.2
					l-0.7,1.5c-0.1,0.2-0.3,0.3-0.6,0.4h-0.6c-0.2,0-0.5-0.1-0.6-0.3l-0.9-1.4c-0.1-0.2-0.4-0.3-0.6-0.2l-0.7,0.3
					c-0.2,0.1-0.3,0.3-0.3,0.5l0.3,1.7c0,0.2-0.1,0.5-0.2,0.6l-0.4,0.4c-0.2,0.1-0.5,0.2-0.7,0.1l-1.6-0.6c-0.2-0.1-0.5,0-0.6,0.2
					L47.7,56c-0.1,0.2-0.1,0.4,0.1,0.6l1.2,1.2c0.1,0.2,0.2,0.4,0.2,0.6l-0.1,0.6c-0.1,0.2-0.3,0.4-0.5,0.5l-1.7,0.5
					c-0.2,0.1-0.4,0.3-0.3,0.5v0.7c0,0.2,0.2,0.4,0.4,0.4l1.7,0.3c0.2,0,0.4,0.2,0.5,0.4l0.2,0.5c0.1,0.2,0,0.5-0.1,0.7l-1,1.4
					c-0.1,0.2-0.1,0.4,0,0.6l0.5,0.6c0.1,0.2,0.4,0.2,0.6,0.1l1.5-0.7c0.2-0.1,0.5-0.1,0.7,0l0.5,0.3c0.2,0.1,0.3,0.4,0.3,0.6v1.7
					c0,0.2,0.2,0.4,0.4,0.5l0.7,0.2c0.2,0.1,0.4-0.1,0.5-0.2l0.8-1.5c0.1-0.2,0.3-0.3,0.6-0.4h0.6c0.2,0,0.5,0.1,0.6,0.3l0.9,1.4
					c0.1,0.2,0.4,0.3,0.6,0.2l0.7-0.3c0.2-0.1,0.3-0.3,0.3-0.5l-0.3-1.7c0-0.2,0.1-0.5,0.2-0.6l0.4-0.4c0.2-0.1,0.5-0.2,0.7-0.1
					l1.6,0.6c0.2,0.1,0.5,0,0.6-0.2l0.4-0.6c0.1-0.2,0.1-0.4-0.1-0.6l-1.2-1.2c-0.1-0.2-0.2-0.4-0.2-0.6l0.1-0.6
					c0.1-0.2,0.3-0.4,0.5-0.5l1.6-0.5c0.2-0.1,0.4-0.3,0.3-0.5v-0.7c0-0.2-0.2-0.4-0.4-0.4L61,58.7c-0.2,0-0.4-0.2-0.5-0.4
					L60.3,57.9z M53.9,63.5c-1.8-0.5-2.8-2.3-2.2-4c0.5-1.8,2.3-2.8,4-2.2c1.8,0.5,2.8,2.3,2.2,4C57.5,63,55.7,64.1,53.9,63.5z"/>
			</g>
		</g>
		<g>
			<g>
				<path class="st1" d="M30.3,43.7c0.1,0,0.2-0.1,0.3-0.3v-0.4c0-0.1-0.1-0.3-0.2-0.3l-1.3-0.3c-0.1,0-0.2-0.2-0.3-0.3v-0.4
					c0-0.1,0.1-0.3,0.2-0.3l1.2-0.5c0.1,0,0.2-0.2,0.2-0.3l-0.1-0.4c0-0.1-0.2-0.2-0.3-0.2l-1.3,0.1c-0.1,0-0.3-0.1-0.3-0.2
					l-0.1-0.3c0-0.1,0-0.3,0.1-0.4l1-0.7c0.1-0.1,0.1-0.2,0.1-0.4l-0.2-0.3c-0.1-0.1-0.2-0.2-0.3-0.1l-1.2,0.5c-0.1,0-0.3,0-0.4-0.1
					l-0.2-0.3c-0.1-0.1-0.1-0.3,0-0.4l0.7-1c0.1-0.1,0.1-0.3,0-0.4L27.8,36c-0.1-0.1-0.3-0.1-0.4,0l-1,0.7c-0.1,0.1-0.3,0.1-0.4,0
					l-0.3-0.2c-0.1-0.1-0.2-0.2-0.1-0.4l0.5-1.2c0-0.1,0-0.3-0.1-0.3l-0.4-0.2c-0.1-0.1-0.3,0-0.4,0.1l-0.8,1.2
					c-0.1,0.1-0.2,0.2-0.4,0.1l-0.3-0.1c-0.1,0-0.2-0.2-0.2-0.3l0.1-1.3c0-0.1-0.1-0.3-0.2-0.3l-0.4-0.1c-0.1,0-0.3,0.1-0.3,0.2
					l-0.5,1.2c0,0.1-0.2,0.2-0.3,0.2h-0.4c-0.1,0-0.3-0.1-0.3-0.2l-0.3-1.2c0-0.1-0.2-0.2-0.3-0.2h-0.4c-0.1,0-0.2,0.1-0.3,0.3
					l-0.1,1.3c0,0.1-0.1,0.3-0.2,0.3l-0.4,0.1c-0.1,0-0.3,0-0.3-0.2l-0.7-1.1c-0.1-0.1-0.2-0.2-0.3-0.1l-0.4,0.1
					c-0.1,0-0.2,0.2-0.2,0.3l0.3,1.2c0,0.1,0,0.3-0.2,0.4l-0.3,0.2c-0.1,0.1-0.3,0-0.4,0l-0.9-0.9c-0.1-0.1-0.3-0.1-0.4,0l-0.3,0.2
					c-0.1,0.1-0.1,0.2-0.1,0.4l0.7,1.1c0.1,0.1,0,0.3,0,0.4L16,38c-0.1,0.1-0.3,0.1-0.4,0.1l-1.1-0.6c-0.1-0.1-0.3,0-0.4,0.1
					l-0.2,0.3c-0.1,0.1-0.1,0.3,0,0.4l0.9,0.9c0.1,0.1,0.1,0.3,0.1,0.4l-0.2,0.3c-0.1,0.1-0.2,0.2-0.3,0.2l-1.3-0.3
					c-0.1,0-0.3,0.1-0.3,0.2l-0.1,0.4c0,0.1,0,0.3,0.1,0.3l1.1,0.6c0.1,0.1,0.2,0.2,0.2,0.3l-0.1,0.4c0,0.1-0.2,0.2-0.3,0.3
					l-1.3,0.1c-0.1,0-0.2,0.1-0.3,0.3v0.4c0,0.1,0.1,0.3,0.2,0.3l1.3,0.3c0.1,0,0.2,0.2,0.3,0.3v0.4c0,0.1-0.1,0.3-0.2,0.3l-1.2,0.5
					c-0.1,0-0.2,0.2-0.2,0.3l0.1,0.4c0,0.1,0.2,0.2,0.3,0.2l1.3-0.1c0.1,0,0.3,0.1,0.3,0.2l0.1,0.3c0,0.1,0,0.3-0.1,0.4l-1,0.7
					c-0.1,0.1-0.1,0.2-0.1,0.4l0.2,0.3c0.1,0.1,0.2,0.2,0.3,0.1l1.2-0.5c0.1,0,0.3,0,0.4,0.1l0.2,0.3c0.1,0.1,0.1,0.3,0,0.4l-0.7,1
					c-0.1,0.1-0.1,0.3,0,0.4l0.3,0.3c0.1,0.1,0.3,0.1,0.4,0l1-0.7c0.1-0.1,0.3-0.1,0.4,0l0.3,0.2c0.1,0.1,0.2,0.2,0.1,0.4l-0.5,1.2
					c0,0.1,0,0.3,0.1,0.3l0.4,0.2c0.1,0.1,0.3,0,0.4-0.1l0.7-1c0.1-0.1,0.2-0.2,0.4-0.1l0.3,0.1c0.1,0,0.2,0.2,0.2,0.3l-0.1,1.3
					c0,0.1,0.1,0.3,0.2,0.3l0.4,0.1c0.1,0,0.3-0.1,0.3-0.2l0.5-1.2c0-0.1,0.2-0.2,0.3-0.2h0.4c0.1,0,0.3,0.1,0.3,0.2l0.3,1.2
					c0,0.1,0.2,0.2,0.3,0.2h0.4c0.1,0,0.2-0.1,0.3-0.3l0.1-1.3c0-0.1,0.1-0.3,0.2-0.3l0.4-0.1c0.1,0,0.3,0,0.3,0.2l0.7,1.1
					c0.1,0.1,0.2,0.2,0.3,0.1l0.4-0.1c0.1,0,0.2-0.2,0.2-0.3l-0.3-1.2c0-0.1,0-0.3,0.2-0.4l0.3-0.2c0.1-0.1,0.3,0,0.4,0l0.9,0.9
					c0.1,0.1,0.3,0.1,0.4,0l0.3-0.2c0.1-0.1,0.1-0.2,0.1-0.4l-0.7-1.1c-0.1-0.1,0-0.3,0-0.4l0.3-0.3C27,48,27.2,48,27.2,48l1.1,0.6
					c0.1,0.1,0.3,0,0.4-0.1l0.2-0.3c0.1-0.1,0.1-0.3,0-0.4L28,46.9c-0.1-0.1-0.1-0.3-0.1-0.4l0.2-0.3c0.1-0.1,0.2-0.2,0.3-0.2
					l1.3,0.3c0.1,0,0.3-0.1,0.3-0.2l0.1-0.4c0-0.1,0-0.3-0.1-0.3l-1.1-0.6c-0.1-0.1-0.2-0.2-0.2-0.3l0.1-0.4c0-0.1,0.2-0.2,0.3-0.3
					L30.3,43.7z M21.5,47.2c-2.4,0-4.3-2-4.3-4.3c0-2.4,2-4.3,4.3-4.3s4.3,2,4.3,4.3C25.9,45.2,24,47.2,21.5,47.2z"/>
			</g>
			<g>
				<circle class="st1" cx="21.5" cy="42.8" r="2.7"/>
			</g>
		</g>
		<g>
			<g>
				<path class="st1" d="M78.4,24.4c-2.4,0-4.4,2-4.4,4.4c0,2.4,2,4.4,4.4,4.4s4.4-2,4.4-4.4C82.9,26.5,80.9,24.4,78.4,24.4z
					 M78.4,31.6c-1.5,0-2.7-1.2-2.7-2.7c0-1.5,1.2-2.7,2.7-2.7c1.5,0,2.7,1.2,2.7,2.7S79.9,31.6,78.4,31.6z"/>
			</g>
			<g>
				<path class="st1" d="M87.2,27.8L87.2,27.8c0-0.1,0-0.1-0.1-0.2c-0.4-0.1-0.7-0.2-1.1-0.2c-0.1,0-0.1,0-0.2,0
					c-0.1-0.2-0.1-0.4-0.2-0.6c-0.1-0.2-0.1-0.4-0.2-0.6c0.1,0,0.1-0.1,0.2-0.1c0.3-0.3,0.6-0.6,0.8-0.7c0.1-0.1,0.1-0.1,0-0.2
					c-0.3-0.5-0.5-0.8-0.7-1.3c0-0.1-0.1-0.1-0.2-0.1c-0.4,0.1-0.7,0.2-1.1,0.4c-0.1,0-0.1,0-0.2,0.1c-0.1-0.2-0.3-0.3-0.4-0.5
					s-0.3-0.3-0.4-0.5c0-0.1,0-0.1,0.1-0.2c0.1-0.4,0.3-0.7,0.4-1.1c0-0.1,0-0.2-0.1-0.2c-0.5-0.3-0.8-0.6-1.3-0.8
					c-0.1,0-0.2,0-0.2,0c-0.3,0.3-0.6,0.6-0.8,0.8L81.4,22c-0.2-0.1-0.4-0.1-0.6-0.2c-0.2-0.1-0.4-0.1-0.6-0.2c0-0.1,0-0.1,0-0.2
					c-0.1-0.4-0.1-0.7-0.2-1.1c0-0.1-0.1-0.1-0.2-0.1c-0.5,0-1-0.1-1.5-0.1c-0.1,0-0.1,0.1-0.2,0.1c-0.1,0.5-0.3,0.8-0.4,1.3h-0.1
					c-0.2,0-0.3,0.1-0.5,0.1c-0.2,0-0.4,0.1-0.6,0.1c-0.3-0.4-0.6-0.7-0.7-1c-0.1-0.1-0.1-0.1-0.2-0.1c-0.5,0.2-0.9,0.4-1.4,0.6
					c-0.1,0-0.1,0.1-0.1,0.2c0.1,0.5,0.2,0.8,0.2,1.3c-0.2,0.1-0.3,0.2-0.5,0.4c-0.1,0.1-0.3,0.2-0.4,0.3c-0.1,0-0.1,0.1-0.1,0.1
					c-0.4-0.2-0.7-0.4-1.2-0.6c-0.1,0-0.2,0-0.2,0c-0.3,0.4-0.7,0.7-0.9,1.1c-0.1,0.1-0.1,0.2,0,0.2c0.3,0.4,0.6,0.7,0.8,1
					c-0.1,0.2-0.2,0.4-0.3,0.6c-0.1,0.2-0.1,0.3-0.2,0.5c0,0.1-0.1,0.1-0.1,0.1c-0.5,0-0.9,0-1.3,0c-0.1,0-0.1,0.1-0.2,0.1
					c-0.1,0.5-0.2,0.9-0.3,1.5c0,0.1,0,0.2,0.1,0.2c0.4,0.2,0.7,0.3,1,0.5c0.1,0,0.1,0.1,0.2,0.1c0,0.2,0,0.4,0,0.6
					c0,0.2,0,0.4,0,0.6c-0.1,0-0.1,0.1-0.2,0.1c-0.4,0.2-0.7,0.4-1,0.6c-0.1,0-0.1,0.1-0.1,0.2c0.1,0.5,0.3,0.9,0.4,1.4
					c0,0.1,0.1,0.1,0.2,0.1c0.4,0,0.7,0,1.1-0.1c0.1,0,0.1,0,0.2,0c0.1,0.2,0.2,0.4,0.3,0.5c0.1,0.2,0.2,0.4,0.3,0.5
					c0,0.1-0.1,0.1-0.1,0.2c-0.2,0.3-0.5,0.7-0.7,0.9c0,0.1,0,0.2,0,0.2c0.4,0.4,0.7,0.7,1,1.1c0.1,0.1,0.1,0.1,0.2,0
					c0.4-0.2,0.7-0.4,1-0.6c0.1,0,0.1-0.1,0.2-0.1c0.2,0.1,0.4,0.2,0.5,0.3c0.2,0.1,0.4,0.2,0.5,0.3c0,0.1,0,0.1,0,0.2
					c0,0.4-0.1,0.7-0.1,1.1c0,0.1,0.1,0.1,0.1,0.2c0.5,0.2,0.9,0.3,1.4,0.5c0.1,0,0.2,0,0.2-0.1c0.2-0.4,0.5-0.7,0.7-1.1h0.1
					c0.2,0,0.3,0,0.5,0c0.2,0,0.4,0,0.6,0c0.2,0.4,0.4,0.8,0.5,1.2c0,0.1,0.1,0.1,0.2,0.1c0.5-0.1,1-0.2,1.5-0.3
					c0.1,0,0.1-0.1,0.1-0.2c0-0.5,0.1-0.8,0.1-1.3c0,0,0.1,0,0.1-0.1c0.2-0.1,0.3-0.1,0.5-0.2c0.2-0.1,0.4-0.2,0.6-0.2
					c0.4,0.3,0.7,0.6,1,0.8c0.1,0,0.1,0.1,0.2,0c0.4-0.3,0.8-0.6,1.2-0.9c0.1-0.1,0.1-0.1,0.1-0.2c-0.2-0.4-0.4-0.8-0.6-1.2
					c0.1-0.2,0.3-0.3,0.4-0.5c0.1-0.1,0.2-0.3,0.3-0.4c0-0.1,0.1-0.1,0.1-0.1c0.5,0.1,0.8,0.2,1.3,0.3c0.1,0,0.2,0,0.2-0.1
					c0.2-0.5,0.5-0.9,0.7-1.3c0-0.1,0-0.2,0-0.2c-0.3-0.3-0.6-0.5-0.9-0.7c-0.1,0-0.1-0.1-0.2-0.1l0,0c0-0.2,0.1-0.4,0.1-0.6
					c0-0.2,0.1-0.4,0.1-0.6c0.1,0,0.1,0,0.2-0.1c0.4-0.1,0.7-0.2,1.1-0.3c0.1,0,0.1-0.1,0.1-0.2C87.2,28.8,87.2,28.3,87.2,27.8z
					 M78.4,34.4c-3.1,0-5.5-2.5-5.5-5.5c0-3.1,2.5-5.5,5.5-5.5c3,0,5.5,2.5,5.5,5.5S81.5,34.4,78.4,34.4z"/>
			</g>
		</g>
	</g>
	<g>
		<circle class="st0" cx="52.6" cy="77.4" r="3"/>
	</g>
	<g>
		<circle class="st0" cx="18.8" cy="144.6" r="3"/>
	</g>
</g>
</svg>
